<?plantuml 1.2026.1?><svg xmlns="http://www.w3.org/2000/svg" xmlns:xlink="http://www.w3.org/1999/xlink" contentStyleType="text/css" data-diagram-type="DESCRIPTION" height="1917.7083px" preserveAspectRatio="none" style="width:2845px;height:1917px;background:#272727;" version="1.1" viewBox="0 0 2845 1917" width="2845.8333px" zoomAndPan="magnify"><title>**PlantUML Collaboration - Deployment Diagram v1.5.1**
&lt;size:20&gt;Opt-in Consent | Privacy First&lt;/size&gt;
&lt;size:16&gt;github.com/JoZapf/EMPC4-containerized-visualization-environment&lt;/size&gt;
&lt;size:16&gt;Docker Container &amp; Network Topology&lt;/size&gt;</title><defs><filter height="300%" id="f1wf9l9s4a0c5h" width="300%" x="-1" y="-1"><feGaussianBlur result="blurOut" stdDeviation="2.0833"/><feColorMatrix in="blurOut" result="blurOut2" type="matrix" values="0 0 0 0 0 0 0 0 0 0 0 0 0 0 0 0 0 0 .4 0"/><feOffset dx="4.1667" dy="4.1667" in="blurOut2" result="blurOut3"/><feBlend in="SourceGraphic" in2="blurOut3" mode="normal"/></filter></defs><g><rect fill="#272727" height="1917.7083" style="stroke:none;stroke-width:1.0417;" width="2845.8333" x="0" y="0"/><g class="title" data-source-line="12"><text fill="#FFFFFF" font-family="'Segoe UI'" font-size="39.5833" font-weight="bold" lengthAdjust="spacing" textLength="1195.4437" x="818.758" y="52.3671">PlantUML Collaboration - Deployment Diagram v1.5.1</text><text fill="#FFFFFF" font-family="'Segoe UI'" font-size="20.8333" font-weight="bold" lengthAdjust="spacing" textLength="345.8354" x="1243.5621" y="81.0404">Opt-in Consent | Privacy First</text><text fill="#FFFFFF" font-family="'Segoe UI'" font-size="16.6667" font-weight="bold" lengthAdjust="spacing" textLength="630.3223" x="1101.3187" y="101.4242">github.com/JoZapf/EMPC4-containerized-visualization-environment</text><text fill="#FFFFFF" font-family="'Segoe UI'" font-size="16.6667" font-weight="bold" lengthAdjust="spacing" textLength="360.9049" x="1236.0273" y="120.8252">Docker Container &amp; Network Topology</text></g><!--cluster host--><g class="cluster" data-qualified-name="host" data-source-line="52" id="ent0002"><polygon fill="#37474F" filter="url(#f1wf9l9s4a0c5h)" points="21.875,544.5475,32.2917,534.1309,2176.0417,534.1309,2176.0417,1889.9121,2165.625,1900.3288,21.875,1900.3288,21.875,544.5475" style="stroke:#78909C;stroke-width:1.0417;"/><line style="stroke:#78909C;stroke-width:1.0417;" x1="2165.625" x2="2176.0417" y1="544.5475" y2="534.1309"/><line style="stroke:#78909C;stroke-width:1.0417;" x1="21.875" x2="2165.625" y1="544.5475" y2="544.5475"/><line style="stroke:#78909C;stroke-width:1.0417;" x1="2165.625" x2="2165.625" y1="544.5475" y2="1900.3288"/><text fill="#FFFFFF" font-family="'Segoe UI'" font-size="18.75" font-weight="bold" lengthAdjust="spacing" textLength="165.7104" x="1011.9364" y="565.0767">Host: arch.local</text></g><!--cluster docker--><g class="cluster" data-qualified-name="host.docker" data-source-line="66" id="ent0007"><polygon fill="#37474F" filter="url(#f1wf9l9s4a0c5h)" points="46.875,807.4434,57.2917,797.0267,2151.0417,797.0267,2151.0417,1864.9121,2140.625,1875.3288,46.875,1875.3288,46.875,807.4434" style="stroke:#78909C;stroke-width:1.0417;"/><line style="stroke:#78909C;stroke-width:1.0417;" x1="2140.625" x2="2151.0417" y1="807.4434" y2="797.0267"/><line style="stroke:#78909C;stroke-width:1.0417;" x1="46.875" x2="2140.625" y1="807.4434" y2="807.4434"/><line style="stroke:#78909C;stroke-width:1.0417;" x1="2140.625" x2="2140.625" y1="807.4434" y2="1875.3288"/><text fill="#FFFFFF" font-family="'Segoe UI'" font-size="18.75" font-weight="bold" lengthAdjust="spacing" textLength="152.5909" x="1018.4962" y="827.9725">Docker Engine</text></g><!--cluster network--><g class="cluster" data-qualified-name="host.docker.network" data-source-line="68" id="ent0008"><rect fill="#2E7D32" filter="url(#f1wf9l9s4a0c5h)" height="999.1354" rx="4.1667" ry="4.1667" style="stroke:#1B5E20;stroke-width:1.0417;" width="2054.1667" x="71.875" y="851.1934"/><path d="M299.8484,851.1934 L299.8484,865.7279 L289.4318,876.1445 L71.875,876.1445" fill="none" style="stroke:#1B5E20;stroke-width:1.0417;"/><text fill="#FFFFFF" font-family="'Segoe UI'" font-size="18.75" font-weight="bold" lengthAdjust="spacing" textLength="217.5568" x="75" y="869.6392">Network: empc4_net</text></g><!--cluster traefik_node--><g class="cluster" data-qualified-name="host.docker.network.traefik_node" data-source-line="71" id="ent0009"><polygon fill="#37474F" filter="url(#f1wf9l9s4a0c5h)" points="1567.7083,918.9017,1578.125,908.485,1805.2083,908.485,1805.2083,1052.1829,1794.7917,1062.5996,1567.7083,1062.5996,1567.7083,918.9017" style="stroke:#78909C;stroke-width:1.0417;"/><line style="stroke:#78909C;stroke-width:1.0417;" x1="1794.7917" x2="1805.2083" y1="918.9017" y2="908.485"/><line style="stroke:#78909C;stroke-width:1.0417;" x1="1567.7083" x2="1794.7917" y1="918.9017" y2="918.9017"/><line style="stroke:#78909C;stroke-width:1.0417;" x1="1794.7917" x2="1794.7917" y1="918.9017" y2="1062.5996"/><text fill="#FFFFFF" font-family="'Segoe UI'" font-size="18.75" font-weight="bold" lengthAdjust="spacing" textLength="149.8444" x="1607.3695" y="939.4309">empc4_traefik</text><text fill="#FFFFFF" font-family="'Segoe UI'" font-size="18.75" font-weight="bold" lengthAdjust="spacing" textLength="159.3292" x="1602.6271" y="961.257">127.0.0.1:8100</text></g><!--cluster proxy_node--><g class="cluster" data-qualified-name="host.docker.network.proxy_node" data-source-line="76" id="ent0011"><polygon fill="#37474F" filter="url(#f1wf9l9s4a0c5h)" points="105.2083,1167.8079,115.625,1157.3913,871.875,1157.3913,871.875,1611.5475,861.4583,1621.9642,105.2083,1621.9642,105.2083,1167.8079" style="stroke:#78909C;stroke-width:1.0417;"/><line style="stroke:#78909C;stroke-width:1.0417;" x1="861.4583" x2="871.875" y1="1167.8079" y2="1157.3913"/><line style="stroke:#78909C;stroke-width:1.0417;" x1="105.2083" x2="861.4583" y1="1167.8079" y2="1167.8079"/><line style="stroke:#78909C;stroke-width:1.0417;" x1="861.4583" x2="861.4583" y1="1167.8079" y2="1621.9642"/><text fill="#FFFFFF" font-family="'Segoe UI'" font-size="18.75" font-weight="bold" lengthAdjust="spacing" textLength="242.5781" x="363.0859" y="1188.3371">empc4_plantuml_proxy</text><text fill="#FFFFFF" font-family="'Segoe UI'" font-size="18.75" font-weight="bold" lengthAdjust="spacing" textLength="33.5907" x="467.5797" y="1210.1633">:80</text></g><!--cluster backend_node--><g class="cluster" data-qualified-name="host.docker.network.backend_node" data-source-line="84" id="ent0016"><polygon fill="#37474F" filter="url(#f1wf9l9s4a0c5h)" points="905.2083,1490.2454,915.625,1479.8288,1594.7917,1479.8288,1594.7917,1814.9121,1584.375,1825.3288,905.2083,1825.3288,905.2083,1490.2454" style="stroke:#78909C;stroke-width:1.0417;"/><line style="stroke:#78909C;stroke-width:1.0417;" x1="1584.375" x2="1594.7917" y1="1490.2454" y2="1479.8288"/><line style="stroke:#78909C;stroke-width:1.0417;" x1="905.2083" x2="1584.375" y1="1490.2454" y2="1490.2454"/><line style="stroke:#78909C;stroke-width:1.0417;" x1="1584.375" x2="1584.375" y1="1490.2454" y2="1825.3288"/><text fill="#FFFFFF" font-family="'Segoe UI'" font-size="18.75" font-weight="bold" lengthAdjust="spacing" textLength="271.8567" x="1109.905" y="1510.7746">empc4_plantuml_backend</text><text fill="#FFFFFF" font-family="'Segoe UI'" font-size="18.75" font-weight="bold" lengthAdjust="spacing" textLength="59.6832" x="1215.9917" y="1532.6008">:8080</text></g><!--cluster sync_node--><g class="cluster" data-qualified-name="host.docker.network.sync_node" data-source-line="92" id="ent0021"><polygon fill="#37474F" filter="url(#f1wf9l9s4a0c5h)" points="1628.125,1178.7246,1638.5417,1168.3079,2092.7083,1168.3079,2092.7083,1621.9434,2082.2917,1632.36,1628.125,1632.36,1628.125,1178.7246" style="stroke:#78909C;stroke-width:1.0417;"/><line style="stroke:#78909C;stroke-width:1.0417;" x1="2082.2917" x2="2092.7083" y1="1178.7246" y2="1168.3079"/><line style="stroke:#78909C;stroke-width:1.0417;" x1="1628.125" x2="2082.2917" y1="1178.7246" y2="1178.7246"/><line style="stroke:#78909C;stroke-width:1.0417;" x1="2082.2917" x2="2082.2917" y1="1178.7246" y2="1632.36"/><text fill="#FFFFFF" font-family="'Segoe UI'" font-size="18.75" font-weight="bold" lengthAdjust="spacing" textLength="230.5573" x="1740.9714" y="1199.2538">empc4_plantuml_sync</text><text fill="#FFFFFF" font-family="'Segoe UI'" font-size="18.75" font-weight="bold" lengthAdjust="spacing" textLength="59.6832" x="1826.4084" y="1221.08">:5001</text></g><!--entity hostnginx--><g class="entity" data-qualified-name="host.hostnginx" data-source-line="54" id="ent0003"><rect fill="#1E88E5" filter="url(#f1wf9l9s4a0c5h)" height="89.4368" rx="4.1667" ry="4.1667" style="stroke:#1565C0;stroke-width:1.0417;" width="384.8175" x="1504.4688" y="608.36"/><polygon fill="#1E88E5" points="1871.5779,613.5684,1871.5779,628.1517,1884.0779,628.1517,1884.0779,619.8184,1877.8279,613.5684,1871.5779,613.5684" style="stroke:#1565C0;stroke-width:1.0417;"/><line style="stroke:#1565C0;stroke-width:1.0417;" x1="1877.8279" x2="1877.8279" y1="613.5684" y2="619.8184"/><line style="stroke:#1565C0;stroke-width:1.0417;" x1="1884.0779" x2="1877.8279" y1="619.8184" y2="619.8184"/><text fill="#FFFFFF" font-family="'Segoe UI'" font-size="18.75" font-weight="bold" lengthAdjust="spacing" textLength="113.8641" x="1514.8854" y="639.3059">Host nginx</text><text fill="#FFFFFF" font-family="'Segoe UI'" font-size="18.75" lengthAdjust="spacing" textLength="353.5675" x="1514.8854" y="661.132">/etc/nginx/sites-available/empc4-arch</text><text fill="#FFFFFF" font-family="'Segoe UI'" font-size="18.75" lengthAdjust="spacing" textLength="30.1758" x="1514.8854" y="682.9582">:80</text></g><g class="entity" data-qualified-name="host.GMN4" data-source-line="57" id="ent0005"><path d="M1925.9271,584.1309 L1925.9271,648.9121 L1889.7188,653.0788 L1925.9271,657.2454 L1925.9271,722.0215 A4.1667,4.1667 0 0 0 1930.0938,726.1882 L2155.3135,726.1882 A4.1667,4.1667 0 0 0 2159.4801,722.0215 L2159.4801,590.3809 L2149.0635,579.9642 L1930.0938,579.9642 A4.1667,4.1667 0 0 0 1925.9271,584.1309" fill="#FFFDE7" filter="url(#f1wf9l9s4a0c5h)" style="stroke:#FFD54F;stroke-width:1.0417;"/><path d="M2149.0635,579.9642 L2149.0635,588.2975 A2.0833,2.0833 0 0 0 2151.1468,590.3809 L2159.4801,590.3809 L2149.0635,579.9642" fill="#FFFDE7" style="stroke:#FFD54F;stroke-width:1.0417;"/><text fill="#333333" font-family="'Segoe UI'" font-size="16.6667" font-weight="bold" lengthAdjust="spacing" textLength="103.6296" x="1932.1771" y="600.6429">NOT in Git!</text><text fill="#333333" font-family="'Segoe UI'" font-size="16.6667" lengthAdjust="spacing" textLength="166.512" x="1932.1771" y="620.0439">Changes are lost on</text><text fill="#333333" font-family="'Segoe UI'" font-size="16.6667" lengthAdjust="spacing" textLength="130.3467" x="1932.1771" y="639.445">server reinstall.</text><text fill="#333333" font-family="'Segoe UI'" font-size="16.6667" lengthAdjust="spacing" textLength="5.2979" x="1932.1771" y="658.846">&#160;</text><text fill="#333333" font-family="'Segoe UI'" font-size="16.6667" font-weight="bold" lengthAdjust="spacing" textLength="72.0052" x="1932.1771" y="678.2471">Routes:</text><text fill="#333333" font-family="'Segoe UI'" font-size="16.6667" lengthAdjust="spacing" textLength="168.0501" x="1932.1771" y="697.6481">/socket.io/ &#8594; Traefik</text><text fill="#333333" font-family="'Segoe UI'" font-size="16.6667" lengthAdjust="spacing" textLength="211.6781" x="1932.1771" y="717.0492">/plantuml-sync/ &#8594; Traefik</text></g><!--entity traefik--><g class="entity" data-qualified-name="host.docker.network.traefik_node.traefik" data-source-line="72" id="ent0010"><rect fill="#43A047" filter="url(#f1wf9l9s4a0c5h)" height="53.0762" rx="4.1667" ry="4.1667" style="stroke:#2E7D32;stroke-width:1.0417;" width="152.5645" x="1599.7604" y="984.5267"/><rect fill="#43A047" height="10.4167" style="stroke:#2E7D32;stroke-width:1.0417;" width="15.625" x="1731.4916" y="989.735"/><rect fill="#43A047" height="2.0833" style="stroke:#2E7D32;stroke-width:1.0417;" width="4.1667" x="1729.4082" y="991.8184"/><rect fill="#43A047" height="2.0833" style="stroke:#2E7D32;stroke-width:1.0417;" width="4.1667" x="1729.4082" y="995.985"/><text fill="#FFFFFF" font-family="'Segoe UI'" font-size="18.75" lengthAdjust="spacing" textLength="110.8978" x="1615.3854" y="1022.7642">Traefik v2.x</text></g><!--entity proxynginx--><g class="entity" data-qualified-name="host.docker.network.proxy_node.proxynginx" data-source-line="77" id="ent0012"><rect fill="#1E88E5" filter="url(#f1wf9l9s4a0c5h)" height="45.7845" rx="4.1667" ry="4.1667" style="stroke:#1565C0;stroke-width:1.0417;" width="210.7941" x="615.4375" y="1247.9954"/><polygon fill="#1E88E5" points="808.5232,1253.2038,808.5232,1267.7871,821.0232,1267.7871,821.0232,1259.4538,814.7732,1253.2038,808.5232,1253.2038" style="stroke:#1565C0;stroke-width:1.0417;"/><line style="stroke:#1565C0;stroke-width:1.0417;" x1="814.7732" x2="814.7732" y1="1253.2038" y2="1259.4538"/><line style="stroke:#1565C0;stroke-width:1.0417;" x1="821.0232" x2="814.7732" y1="1259.4538" y2="1259.4538"/><text fill="#FFFFFF" font-family="'Segoe UI'" font-size="18.75" lengthAdjust="spacing" textLength="179.5441" x="625.8542" y="1278.9413">nginx:stable-alpine</text></g><!--entity socketjs--><g class="entity" data-qualified-name="host.docker.network.proxy_node.socketjs" data-source-line="78" id="ent0013"><rect fill="#43A047" filter="url(#f1wf9l9s4a0c5h)" height="74.9023" rx="4.1667" ry="4.1667" style="stroke:#2E7D32;stroke-width:1.0417;" width="187.8581" x="130.0313" y="1233.4329"/><rect fill="#43A047" height="10.4167" style="stroke:#2E7D32;stroke-width:1.0417;" width="15.625" x="297.056" y="1238.6413"/><rect fill="#43A047" height="2.0833" style="stroke:#2E7D32;stroke-width:1.0417;" width="4.1667" x="294.9727" y="1240.7246"/><rect fill="#43A047" height="2.0833" style="stroke:#2E7D32;stroke-width:1.0417;" width="4.1667" x="294.9727" y="1244.8913"/><text fill="#FFFFFF" font-family="'Segoe UI'" font-size="18.75" lengthAdjust="spacing" textLength="146.1914" x="145.6563" y="1271.6705">socket.io.min.js</text><text fill="#FFFFFF" font-family="'Segoe UI'" font-size="18.75" lengthAdjust="spacing" textLength="136.0565" x="145.6563" y="1293.4966">(IIFE wrapped)</text></g><!--entity collabjs--><g class="entity" data-qualified-name="host.docker.network.proxy_node.collabjs" data-source-line="79" id="ent0014"><rect fill="#FFCDD2" filter="url(#f1wf9l9s4a0c5h)" height="74.9023" rx="4.1667" ry="4.1667" style="stroke:#2E7D32;stroke-width:1.0417;" width="224.4151" x="354.4583" y="1233.4329"/><rect fill="#FFCDD2" height="10.4167" style="stroke:#2E7D32;stroke-width:1.0417;" width="15.625" x="558.0401" y="1238.6413"/><rect fill="#FFCDD2" height="2.0833" style="stroke:#2E7D32;stroke-width:1.0417;" width="4.1667" x="555.9567" y="1240.7246"/><rect fill="#FFCDD2" height="2.0833" style="stroke:#2E7D32;stroke-width:1.0417;" width="4.1667" x="555.9567" y="1244.8913"/><text fill="#FFFFFF" font-family="'Segoe UI'" font-size="18.75" font-weight="bold" lengthAdjust="spacing" textLength="170.2789" x="370.0833" y="1271.6705">collab-control.js</text><text fill="#FFFFFF" font-family="'Segoe UI'" font-size="18.75" lengthAdjust="spacing" textLength="182.7484" x="370.0833" y="1293.4966">(Opt-in Interceptor)</text></g><!--entity navjs--><g class="entity" data-qualified-name="host.docker.network.proxy_node.navjs" data-source-line="80" id="ent0015"><rect fill="#43A047" filter="url(#f1wf9l9s4a0c5h)" height="53.0762" rx="4.1667" ry="4.1667" style="stroke:#2E7D32;stroke-width:1.0417;" width="161.024" x="143.4479" y="1543.8913"/><rect fill="#43A047" height="10.4167" style="stroke:#2E7D32;stroke-width:1.0417;" width="15.625" x="283.6385" y="1549.0996"/><rect fill="#43A047" height="2.0833" style="stroke:#2E7D32;stroke-width:1.0417;" width="4.1667" x="281.5552" y="1551.1829"/><rect fill="#43A047" height="2.0833" style="stroke:#2E7D32;stroke-width:1.0417;" width="4.1667" x="281.5552" y="1555.3496"/><text fill="#FFFFFF" font-family="'Segoe UI'" font-size="18.75" lengthAdjust="spacing" textLength="119.3573" x="159.0729" y="1582.1288">global-nav.js</text></g><!--entity jetty--><g class="entity" data-qualified-name="host.docker.network.backend_node.jetty" data-source-line="85" id="ent0017"><rect fill="#1E88E5" filter="url(#f1wf9l9s4a0c5h)" height="45.7845" rx="4.1667" ry="4.1667" style="stroke:#1565C0;stroke-width:1.0417;" width="229.425" x="1036.3333" y="1547.5371"/><polygon fill="#1E88E5" points="1248.05,1552.7454,1248.05,1567.3288,1260.55,1567.3288,1260.55,1558.9954,1254.3,1552.7454,1248.05,1552.7454" style="stroke:#1565C0;stroke-width:1.0417;"/><line style="stroke:#1565C0;stroke-width:1.0417;" x1="1254.3" x2="1254.3" y1="1552.7454" y2="1558.9954"/><line style="stroke:#1565C0;stroke-width:1.0417;" x1="1260.55" x2="1254.3" y1="1558.9954" y2="1558.9954"/><text fill="#FFFFFF" font-family="'Segoe UI'" font-size="18.75" lengthAdjust="spacing" textLength="198.175" x="1046.75" y="1578.483">plantuml-server:jetty</text></g><!--entity puml--><g class="entity" data-qualified-name="host.docker.network.backend_node.puml" data-source-line="86" id="ent0018"><rect fill="#43A047" filter="url(#f1wf9l9s4a0c5h)" height="53.0762" rx="4.1667" ry="4.1667" style="stroke:#2E7D32;stroke-width:1.0417;" width="222.053" x="922.3021" y="1755.5892"/><rect fill="#43A047" height="10.4167" style="stroke:#2E7D32;stroke-width:1.0417;" width="15.625" x="1123.5218" y="1760.7975"/><rect fill="#43A047" height="2.0833" style="stroke:#2E7D32;stroke-width:1.0417;" width="4.1667" x="1121.4384" y="1762.8809"/><rect fill="#43A047" height="2.0833" style="stroke:#2E7D32;stroke-width:1.0417;" width="4.1667" x="1121.4384" y="1767.0475"/><text fill="#FFFFFF" font-family="'Segoe UI'" font-size="18.75" lengthAdjust="spacing" textLength="180.3864" x="937.9271" y="1793.8267">PlantUML Renderer</text></g><!--entity monaco--><g class="entity" data-qualified-name="host.docker.network.backend_node.monaco" data-source-line="87" id="ent0019"><rect fill="#43A047" filter="url(#f1wf9l9s4a0c5h)" height="53.0762" rx="4.1667" ry="4.1667" style="stroke:#2E7D32;stroke-width:1.0417;" width="175.9196" x="1180.7917" y="1755.5892"/><rect fill="#43A047" height="10.4167" style="stroke:#2E7D32;stroke-width:1.0417;" width="15.625" x="1335.8779" y="1760.7975"/><rect fill="#43A047" height="2.0833" style="stroke:#2E7D32;stroke-width:1.0417;" width="4.1667" x="1333.7946" y="1762.8809"/><rect fill="#43A047" height="2.0833" style="stroke:#2E7D32;stroke-width:1.0417;" width="4.1667" x="1333.7946" y="1767.0475"/><text fill="#FFFFFF" font-family="'Segoe UI'" font-size="18.75" lengthAdjust="spacing" textLength="134.2529" x="1196.4167" y="1793.8267">Monaco Editor</text></g><!--entity syncjs--><g class="entity" data-qualified-name="host.docker.network.backend_node.syncjs" data-source-line="88" id="ent0020"><rect fill="#43A047" filter="url(#f1wf9l9s4a0c5h)" height="53.0762" rx="4.1667" ry="4.1667" style="stroke:#2E7D32;stroke-width:1.0417;" width="184.9009" x="1392.9688" y="1755.5892"/><rect fill="#43A047" height="10.4167" style="stroke:#2E7D32;stroke-width:1.0417;" width="15.625" x="1557.0363" y="1760.7975"/><rect fill="#43A047" height="2.0833" style="stroke:#2E7D32;stroke-width:1.0417;" width="4.1667" x="1554.953" y="1762.8809"/><rect fill="#43A047" height="2.0833" style="stroke:#2E7D32;stroke-width:1.0417;" width="4.1667" x="1554.953" y="1767.0475"/><text fill="#FFFFFF" font-family="'Segoe UI'" font-size="18.75" lengthAdjust="spacing" textLength="143.2343" x="1408.5938" y="1793.8267">sync.js (builtin)</text></g><!--entity python--><g class="entity" data-qualified-name="host.docker.network.sync_node.python" data-source-line="93" id="ent0022"><rect fill="#1E88E5" filter="url(#f1wf9l9s4a0c5h)" height="45.7845" rx="4.1667" ry="4.1667" style="stroke:#1565C0;stroke-width:1.0417;" width="177.359" x="1652.9896" y="1247.9954"/><polygon fill="#1E88E5" points="1812.6403,1253.2038,1812.6403,1267.7871,1825.1403,1267.7871,1825.1403,1259.4538,1818.8903,1253.2038,1812.6403,1253.2038" style="stroke:#1565C0;stroke-width:1.0417;"/><line style="stroke:#1565C0;stroke-width:1.0417;" x1="1818.8903" x2="1818.8903" y1="1253.2038" y2="1259.4538"/><line style="stroke:#1565C0;stroke-width:1.0417;" x1="1825.1403" x2="1818.8903" y1="1259.4538" y2="1259.4538"/><text fill="#FFFFFF" font-family="'Segoe UI'" font-size="18.75" lengthAdjust="spacing" textLength="146.109" x="1663.4063" y="1278.9413">python:3.x-slim</text></g><!--entity flasksocketio--><g class="entity" data-qualified-name="host.docker.network.sync_node.flasksocketio" data-source-line="94" id="ent0023"><rect fill="#43A047" filter="url(#f1wf9l9s4a0c5h)" height="53.0762" rx="4.1667" ry="4.1667" style="stroke:#2E7D32;stroke-width:1.0417;" width="180.2592" x="1867.1667" y="1244.3496"/><rect fill="#43A047" height="10.4167" style="stroke:#2E7D32;stroke-width:1.0417;" width="15.625" x="2026.5925" y="1249.5579"/><rect fill="#43A047" height="2.0833" style="stroke:#2E7D32;stroke-width:1.0417;" width="4.1667" x="2024.5092" y="1251.6413"/><rect fill="#43A047" height="2.0833" style="stroke:#2E7D32;stroke-width:1.0417;" width="4.1667" x="2024.5092" y="1255.8079"/><text fill="#FFFFFF" font-family="'Segoe UI'" font-size="18.75" lengthAdjust="spacing" textLength="138.5925" x="1882.7917" y="1282.5871">Flask-SocketIO</text></g><!--entity eventlet--><g class="entity" data-qualified-name="host.docker.network.sync_node.eventlet" data-source-line="95" id="ent0024"><rect fill="#43A047" filter="url(#f1wf9l9s4a0c5h)" height="53.0762" rx="4.1667" ry="4.1667" style="stroke:#2E7D32;stroke-width:1.0417;" width="119.1661" x="1748.75" y="1543.8913"/><rect fill="#43A047" height="10.4167" style="stroke:#2E7D32;stroke-width:1.0417;" width="15.625" x="1847.0827" y="1549.0996"/><rect fill="#43A047" height="2.0833" style="stroke:#2E7D32;stroke-width:1.0417;" width="4.1667" x="1844.9994" y="1551.1829"/><rect fill="#43A047" height="2.0833" style="stroke:#2E7D32;stroke-width:1.0417;" width="4.1667" x="1844.9994" y="1555.3496"/><text fill="#FFFFFF" font-family="'Segoe UI'" font-size="18.75" lengthAdjust="spacing" textLength="77.4994" x="1764.375" y="1582.1288">eventlet</text></g><!--entity rooms--><g class="entity" data-qualified-name="host.docker.network.sync_node.rooms" data-source-line="96" id="ent0025"><path d="M1904.0833,1543.9121 C1904.0833,1533.4954 1972.9152,1533.4954 1972.9152,1533.4954 C1972.9152,1533.4954 2041.7471,1533.4954 2041.7471,1543.9121 L2041.7471,1596.9395 C2041.7471,1607.3561 1972.9152,1607.3561 1972.9152,1607.3561 C1972.9152,1607.3561 1904.0833,1607.3561 1904.0833,1596.9395 L1904.0833,1543.9121" fill="#FF8F00" filter="url(#f1wf9l9s4a0c5h)" style="stroke:#EF6C00;stroke-width:1.0417;"/><path d="M1904.0833,1543.9121 C1904.0833,1554.3288 1972.9152,1554.3288 1972.9152,1554.3288 C1972.9152,1554.3288 2041.7471,1554.3288 2041.7471,1543.9121" fill="none" style="stroke:#EF6C00;stroke-width:1.0417;"/><text fill="#FFFFFF" font-family="'Segoe UI'" font-size="18.75" lengthAdjust="spacing" textLength="110.2936" x="1914.5" y="1575.8996">rooms_data</text><text fill="#FFFFFF" font-family="'Segoe UI'" font-size="18.75" lengthAdjust="spacing" textLength="116.8304" x="1914.5" y="1597.7258">(in-memory)</text></g><!--entity clients--><g class="entity" data-qualified-name="clients" data-source-line="103" id="ent0026"><path d="M1651.6934,274.7078 C1657.4506,267.8605 1662.4639,266.7975 1667.8311,275.1226 C1671.4925,267.8422 1677.851,267.2572 1682.0074,274.6443 C1686.0146,265.4991 1692.3125,264.5974 1699.0686,271.7701 C1705.2153,264.902 1710.2291,266.0294 1714.1802,274.0053 C1718.2693,268.7384 1723.6969,267.0035 1727.4694,274.3391 C1732.704,266.5984 1740.0656,268.4731 1743.8021,275.9473 C1750.5908,278.4625 1750.6872,284.9736 1745.347,288.9319 C1754.1034,292.7165 1753.7463,300.269 1745.922,304.6598 C1752.2784,310.2243 1752.9559,314.9314 1745.0654,319.6835 C1750.4095,324.2138 1749.4497,329.5533 1742.9422,332.0486 C1741.6263,338.7213 1735.9021,339.2275 1731.8223,334.8233 C1729.1795,340.3585 1724.3145,341.8129 1719.8055,336.9879 C1718.5421,343.7218 1713.1548,345.7944 1708.3031,340.3876 C1706.0916,346.3832 1702.4226,347.5054 1697.8639,342.6447 C1693.6005,346.8437 1689.0574,346.0355 1687.2578,340.0731 C1682.3676,346.0836 1677.2327,344.6399 1674.9608,337.605 C1670.2168,342.3566 1665.1553,342.0321 1662.8562,335.077 C1659.3768,339.4889 1655.7538,339.4496 1653.2362,334.1265 C1645.9417,330.6907 1645.4065,324.1448 1652.0653,319.5854 C1645.4581,315.3906 1643.425,309.8776 1650.6405,304.3869 C1645.0354,300.0134 1644.1134,292.6868 1652.0453,289.5993 C1644.972,284.8263 1644.0942,279.8275 1651.6934,274.7078" fill="#546E7A" filter="url(#f1wf9l9s4a0c5h)" style="stroke:#37474F;stroke-width:1.0417;"/><text fill="#FFFFFF" font-family="'Segoe UI'" font-size="18.75" lengthAdjust="spacing" textLength="76.3916" x="1658.6771" y="298.4621">Browser</text><text fill="#FFFFFF" font-family="'Segoe UI'" font-size="18.75" lengthAdjust="spacing" textLength="64.0503" x="1658.6771" y="320.2883">Clients</text></g><g class="entity" data-qualified-name="GMN37" data-source-line="132" id="ent0038"><path d="M2193.0938,1182.5371 L2193.0938,1359.2298 A4.1667,4.1667 0 0 0 2197.2604,1363.3965 L2623.5625,1363.3965 A4.1667,4.1667 0 0 0 2627.7292,1359.2298 L2627.7292,1188.7871 L2617.3125,1178.3704 L2197.2604,1178.3704 A4.1667,4.1667 0 0 0 2193.0938,1182.5371" fill="#FFFDE7" filter="url(#f1wf9l9s4a0c5h)" style="stroke:#FFD54F;stroke-width:1.0417;"/><path d="M2617.3125,1178.3704 L2617.3125,1186.7038 A2.0833,2.0833 0 0 0 2619.3958,1188.7871 L2627.7292,1188.7871 L2617.3125,1178.3704" fill="#FFFDE7" style="stroke:#FFD54F;stroke-width:1.0417;"/><text fill="#333333" font-family="'Segoe UI'" font-size="16.6667" font-weight="bold" lengthAdjust="spacing" textLength="267.5618" x="2199.3438" y="1199.0492">docker-compose.yml Labels:</text><text fill="#333333" font-family="'Segoe UI'" font-size="16.6667" lengthAdjust="spacing" textLength="123.8525" x="2199.3438" y="1218.4502">plantuml-sync:</text><text fill="#333333" font-family="'Segoe UI'" font-size="16.6667" lengthAdjust="spacing" textLength="54.6061" x="2209.9395" y="1237.8512">labels:</text><text fill="#333333" font-family="'Segoe UI'" font-size="16.6667" lengthAdjust="spacing" textLength="316.2435" x="2220.5352" y="1257.2523">- traefik...routers.plantuml-sync.rule=</text><text fill="#333333" font-family="'Segoe UI'" font-size="16.6667" lengthAdjust="spacing" textLength="221.7367" x="2241.7266" y="1276.6533">PathPrefix(/plantuml-sync)</text><text fill="#333333" font-family="'Segoe UI'" font-size="16.6667" lengthAdjust="spacing" textLength="391.569" x="2220.5352" y="1296.0544">- traefik...routers.plantuml-sync-socketio.rule=</text><text fill="#333333" font-family="'Segoe UI'" font-size="16.6667" lengthAdjust="spacing" textLength="178.1087" x="2241.7266" y="1315.4554">PathPrefix(/socket.io)</text><text fill="#333333" font-family="'Segoe UI'" font-size="16.6667" lengthAdjust="spacing" textLength="273.1283" x="2220.5352" y="1334.8564">- traefik...services.plantuml-sync</text><text fill="#333333" font-family="'Segoe UI'" font-size="16.6667" lengthAdjust="spacing" textLength="267.2852" x="2241.7266" y="1354.2575">.loadbalancer.server.port=5001</text></g><g class="entity" data-qualified-name="GMN40" data-source-line="144" id="ent0041"><path d="M2504.5417,1472.3809 L2504.5417,1668.4746 A4.1667,4.1667 0 0 0 2508.7083,1672.6413 L2830.8763,1672.6413 A4.1667,4.1667 0 0 0 2835.043,1668.4746 L2835.043,1478.6309 L2824.6263,1468.2142 L2508.7083,1468.2142 A4.1667,4.1667 0 0 0 2504.5417,1472.3809" fill="#FFFDE7" filter="url(#f1wf9l9s4a0c5h)" style="stroke:#FFD54F;stroke-width:1.0417;"/><path d="M2824.6263,1468.2142 L2824.6263,1476.5475 A2.0833,2.0833 0 0 0 2826.7096,1478.6309 L2835.043,1478.6309 L2824.6263,1468.2142" fill="#FFFDE7" style="stroke:#FFD54F;stroke-width:1.0417;"/><text fill="#333333" font-family="'Segoe UI'" font-size="16.6667" font-weight="bold" lengthAdjust="spacing" textLength="165.9912" x="2510.7917" y="1488.8929">app.py Structure:</text><text fill="#333333" font-family="'Segoe UI'" font-size="16.6667" lengthAdjust="spacing" textLength="308.6263" x="2510.7917" y="1508.2939">1. eventlet.monkey_patch() &#8592; FIRST!</text><text fill="#333333" font-family="'Segoe UI'" font-size="16.6667" lengthAdjust="spacing" textLength="70.4671" x="2510.7917" y="1527.695">2. Flask(</text><text fill="#333333" font-family="'Segoe UI'" font-size="16.6667" lengthAdjust="spacing" text-decoration="underline" textLength="47.2656" x="2581.2588" y="1527.695">name</text><text fill="#333333" font-family="'Segoe UI'" font-size="16.6667" lengthAdjust="spacing" textLength="6.5023" x="2628.5244" y="1527.695">)</text><text fill="#333333" font-family="'Segoe UI'" font-size="16.6667" lengthAdjust="spacing" textLength="304.7201" x="2510.7917" y="1547.096">3. SocketIO(async_mode='eventlet')</text><text fill="#333333" font-family="'Segoe UI'" font-size="16.6667" lengthAdjust="spacing" textLength="265.2832" x="2510.7917" y="1566.4971">4. Namespace('/plantuml-sync')</text><text fill="#333333" font-family="'Segoe UI'" font-size="16.6667" lengthAdjust="spacing" textLength="5.2979" x="2510.7917" y="1585.8981">&#160;</text><text fill="#333333" font-family="'Segoe UI'" font-size="16.6667" font-weight="bold" lengthAdjust="spacing" textLength="69.9707" x="2510.7917" y="1605.2992">Events:</text><text fill="#333333" font-family="'Segoe UI'" font-size="16.6667" lengthAdjust="spacing" textLength="56.0628" x="2510.7917" y="1624.7002">&#8226; join /</text><text fill="#333333" font-family="'Segoe UI'" font-size="16.6667" font-weight="bold" lengthAdjust="spacing" textLength="50.4313" x="2572.1523" y="1624.7002">leave</text><text fill="#333333" font-family="'Segoe UI'" font-size="16.6667" lengthAdjust="spacing" textLength="94.4336" x="2627.8815" y="1624.7002">(opt-in/out)</text><text fill="#333333" font-family="'Segoe UI'" font-size="16.6667" lengthAdjust="spacing" textLength="151.4893" x="2510.7917" y="1644.1012">&#8226; diagram_update</text><text fill="#333333" font-family="'Segoe UI'" font-size="16.6667" lengthAdjust="spacing" textLength="163.1266" x="2510.7917" y="1663.5023">&#8226; disconnect(*args)</text></g><g class="entity" data-qualified-name="GMN43" data-source-line="157" id="ent0044"><path d="M2192.7813,1452.985 L2192.7813,1687.8809 A4.1667,4.1667 0 0 0 2196.9479,1692.0475 L2463.46,1692.0475 A4.1667,4.1667 0 0 0 2467.6266,1687.8809 L2467.6266,1459.235 L2457.21,1448.8184 L2196.9479,1448.8184 A4.1667,4.1667 0 0 0 2192.7813,1452.985" fill="#FFFDE7" filter="url(#f1wf9l9s4a0c5h)" style="stroke:#FFD54F;stroke-width:1.0417;"/><path d="M2457.21,1448.8184 L2457.21,1457.1517 A2.0833,2.0833 0 0 0 2459.2933,1459.235 L2467.6266,1459.235 L2457.21,1448.8184" fill="#FFFDE7" style="stroke:#FFD54F;stroke-width:1.0417;"/><text fill="#333333" font-family="'Segoe UI'" font-size="16.6667" font-weight="bold" lengthAdjust="spacing" textLength="252.9704" x="2199.0313" y="1469.4971">nginx.conf Injection Order:</text><text fill="#333333" font-family="'Segoe UI'" font-size="16.6667" lengthAdjust="spacing" textLength="5.2979" x="2199.0313" y="1488.8981">&#160;</text><text fill="#333333" font-family="'Segoe UI'" font-size="16.6667" font-weight="bold" lengthAdjust="spacing" textLength="211.5234" x="2199.0313" y="1508.2992">HEAD (before sync.js):</text><text fill="#333333" font-family="'Segoe UI'" font-size="16.6667" lengthAdjust="spacing" textLength="199.3978" x="2199.0313" y="1527.7002">1. socket.io.min.js (IIFE)</text><text fill="#333333" font-family="'Segoe UI'" font-size="16.6667" lengthAdjust="spacing" textLength="15.9017" x="2199.0313" y="1547.1012">2.</text><text fill="#333333" font-family="'Segoe UI'" font-size="16.6667" font-weight="bold" lengthAdjust="spacing" textLength="151.359" x="2220.2308" y="1547.1012">collab-control.js</text><text fill="#333333" font-family="'Segoe UI'" font-size="16.6667" lengthAdjust="spacing" textLength="58.7402" x="2376.8877" y="1547.1012">&#8592; NEW</text><text fill="#333333" font-family="'Segoe UI'" font-size="16.6667" lengthAdjust="spacing" textLength="5.2979" x="2199.0313" y="1566.5023">&#160;</text><text fill="#333333" font-family="'Segoe UI'" font-size="16.6667" font-weight="bold" lengthAdjust="spacing" textLength="59.4401" x="2199.0313" y="1585.9033">BODY:</text><text fill="#333333" font-family="'Segoe UI'" font-size="16.6667" lengthAdjust="spacing" textLength="127.2949" x="2199.0313" y="1605.3044">3. global-nav.js</text><text fill="#333333" font-family="'Segoe UI'" font-size="16.6667" lengthAdjust="spacing" textLength="5.2979" x="2199.0313" y="1624.7054">&#160;</text><text fill="#333333" font-family="'Segoe UI'" font-size="16.6667" font-weight="bold" lengthAdjust="spacing" textLength="73.348" x="2199.0313" y="1644.1064">Critical:</text><text fill="#333333" font-family="'Segoe UI'" font-size="16.6667" lengthAdjust="spacing" textLength="132.1777" x="2277.6771" y="1644.1064">collab-control.js</text><text fill="#333333" font-family="'Segoe UI'" font-size="16.6667" lengthAdjust="spacing" textLength="217.1956" x="2199.0313" y="1663.5075">must load BEFORE sync.js</text><text fill="#333333" font-family="'Segoe UI'" font-size="16.6667" lengthAdjust="spacing" textLength="179.8258" x="2199.0313" y="1682.9085">to intercept io() calls!</text></g><g class="entity" data-qualified-name="N1" data-source-line="172" id="ent0046"><path d="M1787.0521,146.6309 L1787.0521,459.1309 A4.1667,4.1667 0 0 0 1791.2188,463.2975 L2273.3721,463.2975 A4.1667,4.1667 0 0 0 2277.5387,459.1309 L2277.5387,152.8809 L2267.1221,142.4642 L1791.2188,142.4642 A4.1667,4.1667 0 0 0 1787.0521,146.6309" fill="#FFFDE7" filter="url(#f1wf9l9s4a0c5h)" style="stroke:#FFD54F;stroke-width:1.0417;"/><path d="M2267.1221,142.4642 L2267.1221,150.7975 A2.0833,2.0833 0 0 0 2269.2054,152.8809 L2277.5387,152.8809 L2267.1221,142.4642" fill="#FFFDE7" style="stroke:#FFD54F;stroke-width:1.0417;"/><text fill="#333333" font-family="'Segoe UI'" font-size="16.6667" font-weight="bold" lengthAdjust="spacing" textLength="226.9857" x="1793.3021" y="163.1429">Opt-in Consent (v1.5.1):</text><text fill="#333333" font-family="'Segoe UI'" font-size="16.6667" lengthAdjust="spacing" textLength="5.2979" x="1793.3021" y="182.5439">&#160;</text><text fill="#333333" font-family="'Segoe UI'" font-size="16.6667" lengthAdjust="spacing" textLength="227.1403" x="1793.3021" y="201.945">collab-control.js intercepts:</text><text fill="#333333" font-family="'Segoe UI'" font-size="16.6667" lengthAdjust="spacing" textLength="9.8307" x="1793.3021" y="221.346">&#8226;</text><text fill="#333333" font-family="'Segoe UI'" font-size="16.6667" font-weight="bold" lengthAdjust="spacing" textLength="110.4818" x="1808.4307" y="221.346">window.io()</text><text fill="#333333" font-family="'Segoe UI'" font-size="16.6667" lengthAdjust="spacing" textLength="316.9678" x="1924.2103" y="221.346">&#8594; blocks join/emit until user clicks [&#9654;]</text><text fill="#333333" font-family="'Segoe UI'" font-size="16.6667" lengthAdjust="spacing" textLength="9.8307" x="1793.3021" y="240.7471">&#8226;</text><text fill="#333333" font-family="'Segoe UI'" font-size="16.6667" font-weight="bold" lengthAdjust="spacing" textLength="248.7386" x="1808.4307" y="240.7471">window.BroadcastChannel</text><text fill="#333333" font-family="'Segoe UI'" font-size="16.6667" lengthAdjust="spacing" textLength="199.4466" x="2062.4671" y="240.7471">&#8594; Tab-ID based filtering</text><text fill="#333333" font-family="'Segoe UI'" font-size="16.6667" lengthAdjust="spacing" textLength="5.2979" x="1793.3021" y="260.1481">&#160;</text><text fill="#333333" font-family="'Segoe UI'" font-size="16.6667" font-weight="bold" lengthAdjust="spacing" textLength="124.6745" x="1793.3021" y="279.5492">Privacy First:</text><text fill="#333333" font-family="'Segoe UI'" font-size="16.6667" lengthAdjust="spacing" textLength="182.5684" x="1793.3021" y="298.9502">&#8226; Sync OFF by default</text><text fill="#333333" font-family="'Segoe UI'" font-size="16.6667" lengthAdjust="spacing" textLength="194.7591" x="1793.3021" y="318.3512">&#8226; No automatic sharing</text><text fill="#333333" font-family="'Segoe UI'" font-size="16.6667" lengthAdjust="spacing" textLength="253.0843" x="1793.3021" y="337.7523">&#8226; Each tab starts in solo mode</text><text fill="#333333" font-family="'Segoe UI'" font-size="16.6667" lengthAdjust="spacing" textLength="345.459" x="1793.3021" y="357.1533">&#8226; Tab-ID via sessionStorage (iframe-safe)</text><text fill="#333333" font-family="'Segoe UI'" font-size="16.6667" lengthAdjust="spacing" textLength="5.2979" x="1793.3021" y="376.5544">&#160;</text><text fill="#333333" font-family="'Segoe UI'" font-size="16.6667" font-weight="bold" lengthAdjust="spacing" textLength="92.6107" x="1793.3021" y="395.9554">UI States:</text><text fill="#333333" font-family="'Segoe UI'" font-size="16.6667" lengthAdjust="spacing" textLength="256.0384" x="1793.3021" y="415.3564">&#128308; Sync: Unavailable (WS error)</text><text fill="#333333" font-family="'Segoe UI'" font-size="16.6667" lengthAdjust="spacing" textLength="199.3001" x="1793.3021" y="434.7575">&#128993; Sync: Off [&#9654;] (default)</text><text fill="#333333" font-family="'Segoe UI'" font-size="16.6667" lengthAdjust="spacing" textLength="205.306" x="1793.3021" y="454.1585">&#128994; Sync: On [&#9209;] (opted in)</text></g><!--link clients to hostnginx--><g class="link" data-entity-1="ent0026" data-entity-2="ent0003" data-link-type="dependency" data-source-line="108" id="lnk27"><path d="M1696.875,340.8496 C1696.875,405.4225 1696.875,532.2975 1696.875,601.6309" fill="none" id="clients-to-hostnginx" style="stroke:#1E88E5;stroke-width:2.0833;"/><polygon fill="#1E88E5" points="1696.875,607.8809,1701.0417,598.5059,1696.875,602.6725,1692.7083,598.5059,1696.875,607.8809" style="stroke:#1E88E5;stroke-width:2.0833;"/><text fill="#FFFFFF" font-family="'Segoe UI'" font-size="18.75" lengthAdjust="spacing" textLength="121.2067" x="1697.9167" y="512.9934">HTTP/WS :80</text></g><!--link hostnginx to traefik_node--><g class="link" data-entity-1="ent0003" data-entity-2="ent0009" data-link-type="dependency" data-source-line="111" id="lnk28"><path d="M1726.0417,698.3079 C1741.3438,723.7038 1758.9167,756.7975 1768.75,788.6934 C1775.9271,811.9616 1781.0228,837.1816 1784.6268,861.9837 C1786.4288,874.3848 1787.8579,886.6813 1788.9877,898.5771 C1789.2702,901.5511 1789.0087,898.2721 1789.2549,901.1914" fill="none" id="hostnginx-to-traefik_node" style="stroke:#FF8F00;stroke-width:2.0833;"/><polygon fill="#FF8F00" points="1789.7802,907.4193,1793.1442,897.7272,1789.3424,902.2294,1784.8403,898.4276,1789.7802,907.4193" style="stroke:#FF8F00;stroke-width:2.0833;"/><text fill="#FFFFFF" font-family="'Segoe UI'" font-size="18.75" lengthAdjust="spacing" textLength="105.5786" x="1765.8646" y="775.8892">proxy_pass</text></g><!--link traefik to proxy_node--><g class="link" data-entity-1="ent0010" data-entity-2="ent0011" data-link-type="dependency" data-source-line="114" id="lnk29"><path d="M1599.6042,1036.3496 C1499.2656,1068.1829 1317.3307,1125.8965 1159.4518,1175.9772 C1080.5124,1201.0176 1007.5869,1224.1497 953.882,1241.1846 C927.0295,1249.702 904.9822,1256.6951 889.3908,1261.6402 C885.493,1262.8765 881.9987,1263.9847 878.9336,1264.9568 C877.4011,1265.4429 875.9759,1265.8949 874.6612,1266.3118 C874.0039,1266.5203 873.3742,1266.72 872.7725,1266.9108 C872.4717,1267.0062 878.1355,1265.21 877.8487,1265.301" fill="none" id="traefik-to-proxy_node" style="stroke:#AB47BC;stroke-width:2.0833;"/><polygon fill="#AB47BC" points="871.8911,1267.1903,882.0871,1268.328,876.8558,1265.6159,879.568,1260.3846,871.8911,1267.1903" style="stroke:#AB47BC;stroke-width:2.0833;"/><text fill="#FFFFFF" font-family="'Segoe UI'" font-size="18.75" lengthAdjust="spacing" textLength="57.3669" x="1437" y="1116.983">/uml/*</text></g><!--link traefik to sync_node--><g class="link" data-entity-1="ent0010" data-entity-2="ent0021" data-link-type="dependency" data-source-line="115" id="lnk30"><path d="M1700.0729,1037.8184 C1714.9167,1052.1621 1735.125,1069.1413 1756.25,1079.2663 C1882.2604,1139.6621 1968.0104,1039.735 2064.5833,1140.7246 C2069.5208,1145.8874 2073.543,1151.7345 2076.8002,1158.0195 C2078.4289,1161.162 2077.6471,1158.5712 2078.9121,1161.9017" fill="none" id="traefik-to-sync_node" style="stroke:#AB47BC;stroke-width:2.0833;"/><polygon fill="#AB47BC" points="2081.1313,1167.7445,2081.6977,1157.5009,2079.282,1162.8755,2073.9073,1160.4598,2081.1313,1167.7445" style="stroke:#AB47BC;stroke-width:2.0833;"/><text fill="#FFFFFF" font-family="'Segoe UI'" font-size="18.75" lengthAdjust="spacing" textLength="105.9448" x="2078.624" y="1106.0455">/socket.io/*</text><text fill="#FFFFFF" font-family="'Segoe UI'" font-size="18.75" lengthAdjust="spacing" textLength="155.0262" x="2054.0833" y="1127.8716">/plantuml-sync/*</text></g><!--link proxynginx to jetty--><g class="link" data-entity-1="ent0012" data-entity-2="ent0017" data-link-type="dependency" data-source-line="118" id="lnk31"><path d="M745.3021,1293.9225 C767.0104,1313.0475 799.8854,1341.1204 830.2083,1363.4017 C928.625,1435.7038 1046.459,1507.5967 1107.5944,1543.8884" fill="none" id="proxynginx-to-jetty" style="stroke:#43A047;stroke-width:1.5625;"/><polygon fill="#43A047" points="1112.9688,1547.0788,1107.0341,1538.7103,1108.4901,1544.4201,1102.7803,1545.8761,1112.9688,1547.0788" style="stroke:#43A047;stroke-width:1.5625;"/><text fill="#FFFFFF" font-family="'Segoe UI'" font-size="18.75" lengthAdjust="spacing" textLength="89.9048" x="908.2813" y="1413.0975">upstream</text></g><!--link flasksocketio to rooms--><g class="link" data-entity-1="ent0023" data-entity-2="ent0025" data-link-type="dependency" data-source-line="121" id="lnk32"><path d="M1958.6458,1297.8079 C1961.4375,1350.9538 1967.4948,1466.2645 1970.6927,1527.0874" fill="none" id="flasksocketio-to-rooms" style="stroke:#000000;stroke-width:1.5625;"/><polygon fill="#000000" points="1971.0208,1533.3288,1974.6895,1523.7479,1970.7474,1528.1276,1966.3677,1524.1855,1971.0208,1533.3288" style="stroke:#000000;stroke-width:1.5625;"/></g><!--link flasksocketio to eventlet--><g class="link" data-entity-1="ent0023" data-entity-2="ent0024" data-link-type="dependency" data-source-line="122" id="lnk33"><path d="M1944.3333,1297.8079 C1916.0938,1354.2038 1852.0688,1482.0421 1823.9542,1538.1984" fill="none" id="flasksocketio-to-eventlet" style="stroke:#000000;stroke-width:1.5625;"/><polygon fill="#000000" points="1821.1563,1543.7871,1829.079,1537.2694,1823.4879,1539.1298,1821.6274,1533.5387,1821.1563,1543.7871" style="stroke:#000000;stroke-width:1.5625;"/></g><!--link jetty to puml--><g class="link" data-entity-1="ent0017" data-entity-2="ent0018" data-link-type="dependency" data-source-line="125" id="lnk34"><path d="M1138.6667,1593.5059 C1116.7708,1632.5059 1074.3628,1708.0253 1050.9774,1749.6608" fill="none" id="jetty-to-puml" style="stroke:#000000;stroke-width:1.5625;"/><polygon fill="#000000" points="1047.9167,1755.11,1056.1406,1748.9766,1050.4673,1750.569,1048.8749,1744.8956,1047.9167,1755.11" style="stroke:#000000;stroke-width:1.5625;"/></g><!--link jetty to monaco--><g class="link" data-entity-1="ent0017" data-entity-2="ent0019" data-link-type="dependency" data-source-line="126" id="lnk35"><path d="M1163.4167,1593.5059 C1185.3125,1632.5059 1227.7205,1708.0253 1251.106,1749.6608" fill="none" id="jetty-to-monaco" style="stroke:#000000;stroke-width:1.5625;"/><polygon fill="#000000" points="1254.1667,1755.11,1253.2085,1744.8956,1251.6161,1750.569,1245.9428,1748.9766,1254.1667,1755.11" style="stroke:#000000;stroke-width:1.5625;"/></g><!--link jetty to syncjs--><g class="link" data-entity-1="ent0017" data-entity-2="ent0020" data-link-type="dependency" data-source-line="127" id="lnk36"><path d="M1186.5104,1593.7038 C1248.8646,1632.7975 1372.5066,1710.3007 1438.7879,1751.8528" fill="none" id="jetty-to-syncjs" style="stroke:#000000;stroke-width:1.5625;"/><polygon fill="#000000" points="1444.0833,1755.1725,1438.3533,1746.6626,1439.6705,1752.4061,1433.927,1753.7232,1444.0833,1755.1725" style="stroke:#000000;stroke-width:1.5625;"/></g><!--link traefik_node to GMN37--><g class="link" data-entity-1="ent0009" data-entity-2="ent0038" data-link-type="association" data-source-line="132" id="lnk39"><path d="M1805.881,1011.7754 C1806.1239,1011.7717 1806.3699,1011.7681 1806.619,1011.7646 C1807.1172,1011.7575 1807.6278,1011.7507 1808.1507,1011.7441 C1809.1965,1011.7311 1810.2914,1011.7193 1811.4341,1011.7091 C1813.7194,1011.6888 1816.196,1011.6749 1818.8539,1011.6707 C1824.1696,1011.6624 1830.2103,1011.693 1836.8958,1011.7881 C1863.638,1012.1686 1900.6979,1013.5827 1942.9479,1017.6777 C2027.4479,1025.8678 2132.7083,1044.7819 2217.7083,1087.5996 C2261.3021,1109.5579 2301.8333,1144.5788 2334.3646,1178.0788" fill="none" id="traefik_node-GMN37" style="stroke:#000000;stroke-width:1.5625;stroke-dasharray:7.2917,7.2917;"/></g><!--link sync_node to GMN40--><g class="link" data-entity-1="ent0021" data-entity-2="ent0041" data-link-type="association" data-source-line="144" id="lnk42"><path d="M2092.7151,1284.3849 C2092.7905,1284.4919 2092.8665,1284.5994 2092.9428,1284.7074 C2093.2484,1285.1394 2093.5615,1285.5801 2093.8821,1286.0289 C2094.5231,1286.9267 2095.1939,1287.8573 2095.8935,1288.8177 C2097.2928,1290.7386 2098.8075,1292.7788 2100.4309,1294.9142 C2103.6777,1299.1851 2107.3594,1303.8369 2111.4219,1308.6764 C2127.6719,1328.0345 2150.0156,1350.3965 2175,1363.4017 C2247.9167,1401.3496 2278.4063,1371.5475 2357.2917,1394.6517 C2416.625,1412.0267 2430.8542,1419.7454 2485.4167,1448.8184 C2496.5521,1454.7454 2507.8854,1461.1621 2519.1771,1467.8184" fill="none" id="sync_node-GMN40" style="stroke:#000000;stroke-width:1.5625;stroke-dasharray:7.2917,7.2917;"/></g><!--link proxy_node to GMN43--><g class="link" data-entity-1="ent0011" data-entity-2="ent0044" data-link-type="association" data-source-line="157" id="lnk45"><path d="M872.7902,1272.9235 C873.1939,1272.9673 873.6103,1273.0125 874.0394,1273.0591 C874.8976,1273.1523 875.8064,1273.2511 876.7649,1273.3554 C884.4331,1274.1897 895.2882,1275.3779 908.9425,1276.8898 C936.251,1279.9138 974.7562,1284.2332 1021.3568,1289.6089 C1114.5579,1300.3604 1240.1406,1315.3372 1373.2943,1332.627 C1639.6016,1367.2064 1936.1927,1411.0371 2064.5833,1448.8184 C2107.3333,1461.3913 2152.0833,1479.5788 2192.4063,1498.0163" fill="none" id="proxy_node-GMN43" style="stroke:#000000;stroke-width:1.5625;stroke-dasharray:7.2917,7.2917;"/></g><?plantuml-src dLZhRYB95VxFKzGGASQjT7FnTT5w91kQ7KSpO1b6cyrwP1LD0MMQgbPLWSrkHjfV-pVHAihVLVOPeaXvdNc2F49ENVe266obBStGLUTyvzIvLxzHKp8dA8anPIKveop10i_HAA6eNgiLLeOucaq4Nx1HYyTSeDyrplHVWK9H5PCEPyeHTCnJ12LZl8ZLFf8Ceqz_8EZelB0bftZ47ocR82KMv7dOBeQpbFjamWdwU5r-diX0rulGbqBmny6KHZD6f4JruAImUMlFB1WHwBna54IUTnDZfZv-U8_W934USe4LvGpvg4sIcA_cX2dKfdYY4PO06DGzxuvzBK5sir5xsqkKJnamCwaf_u9k15tYQ8KwL4ZrTLNJlKtfwwTl9rHD5yCWulFg7_cVSJAkXXzkMiT-1ES1pn41T2D_IUK2n_G7eujFs98AphGgsu1j7itWGAsK7_qUTObwv6A61Zm1xqnMZgbKi0NZ8u9-B25uhZRZuUZi-EouO_Uu617Xri_ElwfzrJBhsvx_N037Gj4nZjGk0VNm_3mysHPGFpazQTLU8M245HvYkVC4dSvvfrRR5X1sJbkrrmW0zoISQOVka71yT5axFjkMq0ZFsaUDLqWO2ntXEz0BAEi6kZe96w_Hdt6rnpYTTlYCwh1yujnU03yoJxPgK-vqtLWnNunsIJivFWtFBhUb5OBikQEK3j25Vj2xNd-0-j_r1-47kr8oeLlsl7TSgYR4MZGDOXxXsFFA24iqXMMdZFad2qR7WjY4iYUTmrMYegfvW_nGHFfuYIcKW9XKoJo9ZdsDVSUQvxKCs53dsCRCWawc2l7n1e5-FA_R6o0e3zzGzSRpilNM5BC9aQ0RGR7MYRDiJnAnX2mMX3AfS1m7sKu15aePADmiG5QbhWCgeBoAllpy2ne8JCPqbkydkiujvh4lLopQfY5iP8vJF9orioimeJuQSKOUsRKVjtMpSGrihWWraR7bFIFAyJ9NdNBcDG3z76ofdojauPJTlsFrnbbGWxzwynpQd17WzkuBDQxuvBbTTbBGiX4y5LdNU3xlqpFh7ZU2FwrsgfiQ_pxHP7bCcTTTYkQHQwAg2U40iUdZE057vEph8VVCARF82EQK1G_oZbMkhpiXUXGuISZeq41PeWUv3yZp8jCZJRCIF0OidKSLrmElcI8Y8edYmc9QwWUfyxhLRZVsOKzYFiInp_0IK6sSuEM6Eg_pX2v14Cql-s9e2Oqtd3_SqiiUoRF9f6lpWIYrCX3crxwJPehUWYGYYB2k1B1zN1yumn57uOY2UGt7tApiTJnaEbWJLOOB6YlAdATXzVyoR1yONxQgXWUJdjHgzKpSA-ovKbFEcaV1aozZEhScCMlx3jY9iPpvVHEwrpt3DDPBDfZfNkEG9VmN4sMuqfSjXcpIA0lEv_9UlqF4K-RFoPoBbJMfsTjXKVlhSx6dXNyQXBVTo_UkeTd-MRw2qHMYwOwrOWhQs2I8xE-iZsOOhLwt6xO6rxrkty70LlW46SXmZ1H7UQyhfI3-zsxq-eDAH-IBnYV_RTwvK1ELtmq6DzLl-qZNA0sQ0sdOj33dB81gvwrDrBKw3C2ss2LOIeER5bzXUbd9KMkuowlZiwlM9boXLW9O5MAjwfLVPilZJtFbNL8F0EizqJDgcKAkJvhMaRp8QY5syDF09j4rw2AHIX0yD-mwIQ3ZMp-Krg8H-S1bGsLxFOj0m72ISnWhIfEPCf6_kXgGBxZapi84veym2n0phWovKdokvvMYVqfshh1ztJTf8acmciVeFHwIE1irrYpMT44UMv8ivFqKEWW2urqXWpN6G2nYSh6MC3TOJMy4C3rLrjro-7fOFxNe2_XP43oFhKiwZSW6-1eQJ9nu1FqAiuY8mFQ08E52NUYwLyg6gKsJPy7ex0qDE4XMg0yNuKWj14dDN0-oW0Z0npEYyqP5qyeX36v_Gvths_xWZQ5i1CXKmShzFOF9w_xUdkaeG6bPh60ZTGvIBmvIr0DBTXmWVTEM2Ov8vM3Ty8x4QHfgnYmCllpq6thWqFEhi1KJl8J145MucGEgu9h3Z6fahyxtYmHA9oaiInWY68bKnSDY8WztsopFUwUAoKMuGRCnZ1mF0A7lwprzjqZLSuJlmiisD3yovZ1dksPuM33nvc24p5nqcDhrsN77sByRVbkKSzLhVvV2Wk7NHfaYNKjGHU6c0hHe2zhGp1TGQtLieQkmqxiDKwtD9jGacevOY7A81S2AvPjDqq7RwDQTo8tF4nNx1UDmpL1RgkHYN59hZtdU8sKZ_XXeoSOElw0XNBncqaG2N9ceGWkcQ8mMa12wS-czxx_yuz-Vja6WsU5HXANILo56OWSu03sksqXtt14Qmz1216MJeWtNFgyKmz4KtbwdWuQhz1jHjjVb22yWd32ONtz-oa3rPeYZAO8kZs2-5aeV7W8ZvcYUHfmcSeejAOOBcfGGSNsOm_24e0erLnvVuZ5PovYFrv3Nk71D---lV_-NKRE9FhBiheagq6k9430qEwfV_-ceUkEnjH-gk1Db9B-b90me_lgVJoRvY6uPUIRz3m00?></g></svg>